<svg xmlns="http://www.w3.org/2000/svg" viewBox="0 0 1200 675" role="img" aria-label="Ratgeber — Auto aus Deutschland">
  <defs>
    <linearGradient id="g" x1="0" y1="0" x2="1" y2="1"><stop offset="0" stop-color="#103049"/><stop offset="1" stop-color="#081a27"/></linearGradient>
    <radialGradient id="glow" cx="0.82" cy="0.18" r="0.62"><stop offset="0" stop-color="#1ca3e0" stop-opacity="0.34"/><stop offset="1" stop-color="#1ca3e0" stop-opacity="0"/></radialGradient>
  </defs>
  <rect width="1200" height="675" fill="url(#g)"/>
  <rect width="1200" height="675" fill="url(#glow)"/>
  <g stroke="#46b6e9" stroke-opacity="0.10" stroke-width="2"><path d="M-100 720 L560 320"/><path d="M240 740 L620 320"/><path d="M1320 720 L700 320"/><path d="M1040 740 L660 320"/></g>
  <text x="1130" y="500" text-anchor="end" font-family="Manrope, Arial, sans-serif" font-weight="800" font-size="300" fill="#ffffff" fill-opacity="0.05">DE</text>
  <rect x="80" y="86" width="132" height="132" rx="30" fill="#1ca3e0" fill-opacity="0.16"/>
  <g transform="translate(116,122) scale(2.5)" fill="none" stroke="#7fd0f2" stroke-width="1.6" stroke-linecap="round" stroke-linejoin="round"><path d="M12 3l7 3v5c0 4.5-3 8-7 10-4-2-7-5.5-7-10V6l7-3z"/><path d="M9 12l2 2 4-4"/></g>
  <text x="244" y="150" font-family="Manrope, Arial, sans-serif" font-weight="800" font-size="38" fill="#ffffff">TOTAL24</text>
  <text x="244" y="192" font-family="Manrope, Arial, sans-serif" font-weight="700" font-size="26" letter-spacing="6" fill="#8fd0f0">RATGEBER</text>
</svg>
